<svg version="1.1" xmlns="http://www.w3.org/2000/svg" viewBox="0 0 518 185" width="1036" height="370">
  <!-- svg-source:excalidraw -->
  
  <defs>
    <style>
      @font-face {
        font-family: "Virgil";
        src: url("https://excalidraw.com/FG_Virgil.woff2");
      }
      @font-face {
        font-family: "Cascadia";
        src: url("https://excalidraw.com/Cascadia.woff2");
      }
    </style>
  </defs>
  <rect x="0" y="0" width="518" height="185" fill="#ffffff"></rect><g transform="translate(42 44) rotate(0 65 65)"><path d="M-1.26657073199749 1.3641957491636276 C42.771688766777515 -2.0153582118451596, 87.57784682512283 -1.564931633323431, 128.7618568688631 1.5929168909788132 M0.8284813985228539 -0.374411903321743 C37.756103605031974 -1.6917872183024885, 74.60238883644344 -2.0492064706981186, 129.6314787492156 -0.8892966136336327 M130.79382021725178 -1.5042930394411087 C129.12247380390764 49.54959885030985, 132.02007731571794 96.6898402273655, 130.2420018464327 131.67112915217876 M130.9065432175994 -0.2523432597517967 C129.16387213245034 33.934299513697624, 129.3435531951487 66.3083583638072, 130.25930710881948 129.01344982534647 M130.09708531200886 128.40509597957134 C88.31327899545431 128.8967852078378, 47.30616030097008 128.57063097581266, 1.6647280007600784 128.0853246897459 M130.45581933110952 130.85493198782206 C86.81934244930744 130.31671357378363, 42.6830715611577 131.50261402353644, 0.4889649972319603 130.82938138395548 M-0.5203496664762497 128.20124952495098 C1.4042029522359372 102.2003433033824, 1.776141180843115 77.1363725066185, 0.06958611309528351 -1.0087347775697708 M-0.6801844015717506 130.81875173002481 C1.2548843257129192 96.06821563839912, 2.225962483137846 60.11886515468359, -0.06260422617197037 0.03139845281839371" stroke="#000000" stroke-width="1" fill="none"></path></g><g transform="translate(210 44) rotate(0 65 65)"><path d="M-1.3636208325624466 0.6587913781404495 C36.23815184086561 -3.2013639785349373, 71.91211384534836 -3.1820563651621345, 130.47084371745586 0.09708531200885773 M0.7278310433030128 -0.867708720266819 C29.46548786759377 -0.04131656959652896, 57.62029709666968 1.2327858798205853, 130.55338517576456 0.4558193311095238 M129.77670995891094 1.5664265900850296 C131.52650940045714 51.77287860959769, 128.6861492358148 98.86148700118066, 131.86744587123394 129.47965033352375 M130.4438785687089 0.46239014714956284 C130.37007534727454 26.803754523396492, 130.01705825552344 53.623840518295765, 129.7000128403306 129.31981559842825 M131.87167637050152 129.69008047878742 C80.23101905733347 131.27349104061722, 29.981887012720108 129.9624458707869, 1.8080391138792038 129.85606606304646 M130.1739412918687 130.32009979337454 C89.4650854319334 130.89188483729959, 50.80277650803326 130.04722813144326, 0.523009218275547 130.17797537893057 M0.8114151209592819 129.81930382549763 C2.6496410109102726 103.1192151978612, 1.3246922232210636 75.87257200479507, 0.22963516414165497 0.719008281826973 M-0.851267896592617 130.4473635777831 C-0.27251505777239804 96.76338312029839, -1.0953960411250592 61.35841725021601, -0.6453502997756004 0.2956795319914818" stroke="#000000" stroke-width="1" fill="none"></path></g><g transform="translate(378 44) rotate(0 65 65)"><path d="M-1.5428005009889603 -0.5229832381010056 C44.124049715697765 -0.6798097707331181, 90.19560879468918 -1.3744761563837529, 129.85863487422466 0.16401369869709015 M0.6808661594986916 0.09038516134023666 C47.16624680161477 -0.9220667250454426, 91.570488832891 -1.5923688776791096, 129.04703155905008 -0.7396130934357643 M128.28644935786724 1.196953609585762 C128.87566122636198 39.835388384759426, 130.4809645138681 82.2031475007534, 129.57355062663555 128.86229832470417 M129.13143364340067 -0.5665994063019753 C129.28042311891915 26.11470527946949, 129.53526277765633 51.4956788495183, 129.90645066648722 130.28012200444937 M129.64894811809063 128.37460835278034 C94.71919897943735 132.11947738304735, 58.91974464058876 129.5290285266936, 1.3641957491636276 129.09300787746906 M129.38092843443155 130.7964584454894 C100.05447570979595 129.40203228965402, 71.3231539055705 130.2003733254969, -0.374411903321743 130.7630147561431 M-0.7370425015687943 128.22140677273273 C0.7252521015703677 99.00161261111498, -0.9479785464704038 66.17618185281754, -1.5042930394411087 -1.7293068617582321 M0.12100092321634293 130.83556457608938 C-1.221740411967039 86.934416025877, -0.9694794885814189 44.736354328691945, -0.2523432597517967 -0.8614914789795876" stroke="#000000" stroke-width="1" fill="none"></path></g><g><g transform="translate(10 44) rotate(0 0 65.5)"><path d="M0 0 C0 21.833333333333332, 0 109.16666666666667, 0 131" stroke="#000000" stroke-width="1.5" fill="none" stroke-dasharray="12 8"></path></g><g transform="translate(10 44) rotate(0 0 65.5)"><path d="M10.260604299770062 28.190778623577252 C6.748386466752073 18.54103943515448, 3.236168633734085 8.891300246731713, 0 0" stroke="#000000" stroke-width="1.5" fill="none"></path></g><g transform="translate(10 44) rotate(0 0 65.5)"><path d="M-10.260604299770062 28.190778623577252 C-6.748386466752073 18.54103943515448, -3.236168633734085 8.891300246731713, 0 0" stroke="#000000" stroke-width="1.5" fill="none"></path></g><g transform="translate(10 44) rotate(0 0 65.5)"><path d="M-10.260604299770062 102.80922137642276 C-6.748386466752073 112.45896056484553, -3.236168633734085 122.1086997532683, 0 131" stroke="#000000" stroke-width="1.5" fill="none"></path></g><g transform="translate(10 44) rotate(0 0 65.5)"><path d="M10.260604299770062 102.80922137642276 C6.748386466752073 112.45896056484553, 3.236168633734085 122.1086997532683, 0 131" stroke="#000000" stroke-width="1.5" fill="none"></path></g></g><g><g transform="translate(39 10) rotate(0 68 0)"><path d="M0 0 C22.666666666666668 0, 113.33333333333333 0, 136 0" stroke="#000000" stroke-width="1.5" fill="none" stroke-dasharray="12 8"></path></g><g transform="translate(39 10) rotate(0 68 0)"><path d="M28.190778623577252 -10.260604299770062 C19.486423894716644 -7.09247826997054, 10.782069165856033 -3.924352240171017, 0 0" stroke="#000000" stroke-width="1.5" fill="none"></path></g><g transform="translate(39 10) rotate(0 68 0)"><path d="M28.190778623577252 10.260604299770062 C19.486423894716644 7.09247826997054, 10.782069165856033 3.924352240171017, 0 0" stroke="#000000" stroke-width="1.5" fill="none"></path></g><g transform="translate(39 10) rotate(0 68 0)"><path d="M107.80922137642276 10.260604299770062 C116.51357610528336 7.09247826997054, 125.21793083414397 3.924352240171017, 136 0" stroke="#000000" stroke-width="1.5" fill="none"></path></g><g transform="translate(39 10) rotate(0 68 0)"><path d="M107.80922137642276 -10.260604299770062 C116.51357610528336 -7.09247826997054, 125.21793083414397 -3.924352240171017, 136 0" stroke="#000000" stroke-width="1.5" fill="none"></path></g></g></svg>